<svg width="950" height="945" viewBox="0 0 950 945" fill="none" xmlns="http://www.w3.org/2000/svg">
<g clip-path="url(#clip0_506_3799)">
<path fill-rule="evenodd" clip-rule="evenodd" d="M-0.00011719 139.318C1.67988 136.438 10.0399 109.278 10.3199 106.478C11.9999 90.0381 13.3999 73.5181 15.5599 57.1181C17.4799 42.4781 40.0799 20.7981 54.9199 20.9981C86.9999 21.3581 118.44 11.6781 150.64 15.5581C162 16.9181 173.52 13.1581 184.92 20.1181C190.56 23.5581 200.92 22.9981 207.6 20.3581C246.6 4.95809 287.16 11.5981 327.08 10.7981C337.64 10.5981 346.88 19.9181 359.36 11.1581C367.08 5.75809 380.92 14.3581 390.24 5.31809C390.68 4.87809 391.92 5.31809 392.76 5.23809C416.08 3.51809 439.4 0.958093 462.76 0.478094C474 0.238094 485.32 3.87809 498.64 6.07809C502.16 10.1181 506.96 15.5981 511.56 20.8381C509.48 23.4381 508.6 25.6381 507.48 25.7581C400.2 36.4381 292.56 28.4781 185.12 31.2381C169.48 31.6381 153.96 35.1981 138.32 36.0381C122.04 36.8781 105.68 35.5581 89.3999 36.5181C81.5599 36.9981 73.9199 40.5981 61.4399 44.1181C43.9599 58.4381 36.1599 82.1181 30.1999 108.358C22.7199 141.278 27.0399 174.038 25.9199 206.838C24.8799 236.798 25.6799 266.838 25.6799 298.598C21.5599 298.878 17.5599 299.118 13.6799 299.358C4.95988 286.198 4.71988 271.638 4.95988 256.798C5.31988 234.478 5.11988 212.158 4.95988 189.838C4.95988 186.118 6.95988 180.678 -0.120117 180.598V139.358L-0.00011719 139.318Z" fill="#E60012"/>
<path fill-rule="evenodd" clip-rule="evenodd" d="M136.319 877.675C132.759 879.675 128.159 883.315 122.919 884.955C117.479 886.635 110.239 888.795 105.959 886.555C94.5193 880.635 84.0393 872.755 73.5993 865.075C61.3593 856.035 56.8793 842.115 57.1593 828.315C57.6793 805.515 47.7193 783.795 51.5593 760.875C41.7593 738.115 48.5193 714.155 46.2793 690.875C45.3593 681.195 42.3193 671.755 41.4393 662.075C40.5993 652.715 40.2793 643.075 41.4393 633.755C43.6393 616.195 45.0793 598.155 57.9993 583.995C64.6793 576.675 62.7593 569.555 58.6793 561.115C51.2793 545.795 44.7193 530.075 46.0393 512.075C46.4793 506.075 41.9593 499.875 41.4393 493.595C40.1193 477.835 41.5993 462.395 49.4793 448.075C53.3193 441.115 56.3993 433.715 60.3593 425.275C56.9993 413.315 44.1993 402.915 46.4793 387.475C48.6393 372.755 40.6793 356.955 51.2793 343.075C52.1193 341.995 51.5193 339.755 51.5193 338.075C51.5193 307.155 55.7593 275.475 50.3993 245.515C44.3193 211.475 47.9193 178.035 46.7193 144.355C45.8793 120.475 56.5993 98.5953 68.9993 79.1953C75.3993 69.1953 89.3193 63.9553 102.559 61.9153C112.199 60.4353 121.719 57.8753 131.359 56.9953C140.719 56.1553 150.279 57.4753 159.679 56.5953C168.519 55.7953 178.279 55.3153 185.639 51.1553C196.119 45.2353 206.599 46.5953 217.279 46.5553C249.039 46.3553 280.839 45.9953 312.599 46.6353C340.439 47.1953 367.439 38.9953 395.519 40.9153C422.879 42.7953 450.519 40.1153 477.919 41.6353C509.839 43.3953 541.599 48.7553 573.719 46.3553C580.919 45.8353 587.679 46.1153 595.399 42.6753C606.399 37.7553 621.839 38.3953 630.839 46.9153C645.919 61.2353 662.719 63.5953 681.319 61.5153C694.359 53.2753 707.319 45.1153 721.559 36.1153C732.719 36.1153 745.719 35.0753 758.479 36.3553C786.319 39.0753 814.199 42.1153 841.759 46.8353C854.359 48.9953 865.039 59.0353 870.359 69.6353C878.159 85.0753 884.439 101.315 887.599 119.315C893.839 154.795 891.279 190.155 891.879 225.515C892.479 261.595 891.639 297.675 892.199 333.755C892.399 345.995 888.199 359.115 897.119 370.315C897.519 370.835 897.439 372.115 897.119 372.835C889.719 389.635 894.399 407.715 891.559 424.755C885.959 458.635 884.959 460.395 891.919 492.715C892.439 495.195 892.239 497.875 891.919 500.395C888.119 534.355 897.719 567.555 897.239 601.355C896.719 634.835 897.159 668.355 897.119 701.835C897.119 726.995 888.279 751.595 891.959 776.995C883.079 793.595 887.439 811.595 886.959 828.955C886.079 860.475 868.919 879.195 837.999 881.915C827.479 882.835 817.119 885.995 806.599 886.715C796.719 887.395 786.959 886.675 777.679 891.795C774.399 893.635 769.239 892.075 764.959 892.075C742.639 892.075 720.279 891.515 697.959 892.195C635.839 893.995 574.119 883.035 511.999 886.835C497.959 887.715 484.199 887.235 470.159 891.555C457.039 895.635 441.599 887.955 428.639 897.275C407.079 894.675 385.599 899.435 363.399 893.435C344.199 888.275 322.159 889.675 302.039 892.675C268.319 897.715 247.159 898.075 213.359 892.675C200.479 890.635 187.159 890.435 174.359 886.995C162.839 883.875 151.159 881.235 136.239 877.595L136.319 877.675Z" fill="#E60012"/>
<path fill-rule="evenodd" clip-rule="evenodd" d="M908.36 7.23637C915.4 16.5564 925.04 27.9964 933.12 40.4364C940.96 52.5164 944.28 67.3164 947.6 80.5964C951 94.1564 949.04 109.956 945.88 125.316C941.64 145.716 944.4 167.556 944.16 188.796C952.04 194.516 948.56 202.916 948.6 210.076C948.88 262.476 949.04 314.916 948.52 367.356C948.4 377.836 945.4 388.276 943.56 398.716C941.72 409.196 948.04 420.596 939.08 430.516C936.92 432.916 936.84 439.796 938.72 442.796C946.96 456.236 940.76 471.076 943.88 484.596C953.92 528.396 946.72 572.636 948.44 616.596C948.92 628.676 944.68 640.916 943.8 653.116C942.96 665.076 941.48 677.636 944 689.116C953.12 730.356 946.68 771.996 948.76 813.396C949.92 836.116 940.44 857.876 943.16 880.916C943.84 886.556 939.24 892.836 935.76 902.436C925.8 913.796 912.52 927.316 892.28 930.476C886.64 931.356 881.04 933.116 875.4 933.156C845.32 933.436 815.24 933.436 785.16 933.156C778.72 933.116 771.68 935.676 766.12 929.036C764.64 927.276 758.52 926.836 756.56 928.356C744.24 938.116 729.88 929.956 717.36 933.596C703.52 937.636 689.76 938.796 675.56 938.476C661.8 938.156 648 939.316 634.32 938.116C623 937.116 612.28 932.436 600.32 932.836C589.92 933.156 579.52 935.076 568.44 929.076C561.72 925.436 548.48 929.276 540.52 933.836C531.48 938.996 522.84 938.836 513.96 938.156C503.44 937.316 492.88 941.476 482.04 934.196C473.76 928.636 461.68 935.916 450.6 929.116C444.08 925.116 431.56 926.156 421.6 931.396C410.8 937.076 396.6 929.436 385.88 938.436C347.08 940.596 308.44 946.476 269.44 943.436C260.6 942.756 251.96 940.036 243.2 938.476C235.24 937.076 226 941.836 219.44 933.596C190.28 933.476 161.08 933.396 131.92 933.276C124.64 942.356 114.56 937.836 105.68 938.316C69.6002 940.276 39.8402 926.836 16.2002 900.356V593.636C19.2002 593.476 21.5602 593.356 23.7202 593.236C24.5202 595.116 25.7202 596.556 25.7202 598.036C25.8002 669.356 25.8002 740.676 25.8002 812.036C25.8002 821.916 26.6402 831.276 30.2002 841.116C33.0802 849.036 32.8002 858.396 35.7602 867.196C45.8402 897.076 65.0802 912.636 95.1602 912.716C150.16 912.836 205.56 916.796 260.08 911.716C330.88 905.156 401.4 909.076 472.04 907.836C543.36 906.596 614.68 907.556 686.04 907.556H901.48C911.48 889.796 919.84 871.636 923.76 850.076C932.44 802.556 925.48 755.076 928.2 707.716C917.28 658.036 925.44 607.716 923.16 557.756C922.2 536.836 932.64 516.516 928.08 495.476C919.52 455.996 926.76 415.836 922.12 376.516C919.68 355.636 921.52 334.276 917.24 314.236C909.44 277.876 914.08 241.596 913 205.356C911.92 168.436 912.16 131.436 913.08 94.5164C913.4 81.5164 917.36 68.6364 919.44 56.9164C901.88 33.6764 879.8 25.7964 853.52 25.5564C841.32 25.4364 829.2 21.7164 816.96 20.8764C805 20.0364 792.36 18.3964 781 21.1164C749.12 28.8364 717.04 25.0364 685.04 25.6764C653.24 26.3164 621.44 25.8364 589.64 25.8364H579.08C576.4 21.6364 573.84 17.5964 571.32 13.5964C584.88 9.39637 597 5.39637 609.28 1.95637C614 0.636367 619.04 0.116367 623.96 0.116367C703.04 -0.00363316 782.08 -0.283633 861.16 0.356367C875.84 0.476367 890.44 4.51637 908.36 7.23637Z" fill="#E60012"/>
<path d="M332.711 649.273L509.078 343.707L503.609 338.238H405.172C392.184 338.238 379.765 337.213 367.916 335.162C356.067 333.111 346.383 328.782 338.863 322.174C331.572 315.566 327.926 305.654 327.926 292.438C327.926 277.171 331.572 265.891 338.863 258.6C346.155 251.308 355.611 246.523 367.232 244.244C379.081 241.738 391.728 240.484 405.172 240.484H584.957C601.135 240.484 614.124 245.839 623.922 256.549C633.948 267.031 638.961 278.993 638.961 292.438C638.961 299.501 637.594 305.654 634.859 310.895L459.176 616.461L463.961 621.246H562.398C575.615 621.246 588.033 622.385 599.654 624.664C611.503 626.715 621.074 631.272 628.365 638.336C635.885 645.172 639.645 655.654 639.645 669.781C639.645 684.137 635.885 694.846 628.365 701.91C621.074 708.974 611.503 713.645 599.654 715.924C588.033 717.975 575.615 719 562.398 719H382.613C366.435 719 353.219 714.101 342.965 704.303C332.939 694.505 327.926 682.997 327.926 669.781C327.926 665.68 328.154 662.148 328.609 659.186C329.293 655.995 330.66 652.691 332.711 649.273Z" fill="white"/>
</g>
<defs>
<clipPath id="clip0_506_3799">
<rect width="949.44" height="944.44" fill="white"/>
</clipPath>
</defs>
</svg>
